<?xml version="1.0" encoding="UTF-8" standalone="no"?><!DOCTYPE svg PUBLIC "-//W3C//DTD SVG 1.1//EN" "http://www.w3.org/Graphics/SVG/1.1/DTD/svg11.dtd"><svg width="100%" height="100%" viewBox="0 0 20 21" version="1.1" xmlns="http://www.w3.org/2000/svg" xmlns:xlink="http://www.w3.org/1999/xlink" xml:space="preserve" style="fill-rule:evenodd;clip-rule:evenodd;stroke-linecap:round;stroke-linejoin:round;stroke-miterlimit:10;"><g><circle cx="10" cy="10.875" r="10" style="fill:url(#_Linear1);"/><g><path d="M4.153,13.678l0,-5.606c0,-0.581 0.471,-1.051 1.051,-1.051l5.606,0c0.581,0 1.051,0.47 1.051,1.051l0,5.606c0,0.58 -0.47,1.051 -1.051,1.051l-5.606,0c-0.58,0 -1.051,-0.471 -1.051,-1.051" style="fill:none;stroke:#fff;stroke-width:0.73px;"/><path d="M15.847,8.265l-2.321,1.577l0,2.066l2.321,1.577l0,-5.22Z" style="fill:none;stroke:#fff;stroke-width:0.73px;"/><path d="M7.492,9.591l-0.511,-0.425l0,3.418l2.052,-1.709l-0.957,-0.797" style="fill:none;stroke:#fff;stroke-width:0.58px;"/></g></g><defs><linearGradient id="_Linear1" x1="0" y1="0" x2="1" y2="0" gradientUnits="userSpaceOnUse" gradientTransform="matrix(20,-20,12.8,31.25,-1.42109e-14,20.8748)"><stop offset="0%" style="stop-color:#18c584;stop-opacity:1"/><stop offset="100%" style="stop-color:#1fcec4;stop-opacity:1"/></linearGradient></defs></svg>