<?xml version="1.0" encoding="UTF-8" standalone="no"?><!DOCTYPE svg PUBLIC "-//W3C//DTD SVG 1.1//EN" "http://www.w3.org/Graphics/SVG/1.1/DTD/svg11.dtd"><svg width="100%" height="100%" viewBox="0 0 20 21" version="1.1" xmlns="http://www.w3.org/2000/svg" xmlns:xlink="http://www.w3.org/1999/xlink" xml:space="preserve" style="fill-rule:evenodd;clip-rule:evenodd;stroke-linecap:round;stroke-linejoin:round;stroke-miterlimit:10;"><g><circle cx="10" cy="10.875" r="10" style="fill:url(#_Linear1);"/><g><path d="M13.18,10.193c0,1.074 -0.871,1.945 -1.946,1.945l-0.439,0c-1.073,0 -1.944,-0.871 -1.944,-1.945l0,-2.509c0,-1.075 0.871,-1.946 1.944,-1.946l0.439,0c1.075,0 1.946,0.871 1.946,1.946l0,2.509Z" style="fill:none;stroke:#fff;stroke-width:0.73px;"/><path d="M15.847,15.749l-4.832,0l-4.832,0l0,-0.86c-0.029,-0.861 3.944,-1.75 3.944,-1.75l0,-0.954" style="fill:none;stroke:#fff;stroke-width:0.73px;"/><path d="M11.903,13.139c0,0 3.973,0.889 3.944,1.75l0,0.86" style="fill:none;stroke:#fff;stroke-width:0.73px;"/><path d="M8.195,11.954l-0.351,0c-0.859,0 -1.556,-0.697 -1.556,-1.556l0,-2.009c0,-0.859 0.697,-1.556 1.556,-1.556l0.351,0" style="fill:none;stroke:#fff;stroke-width:0.63px;"/><path d="M7.309,11.992l0,0.763c0,0 -3.179,0.711 -3.156,1.4l0,1.615" style="fill:none;stroke:#fff;stroke-width:0.63px;"/></g></g><defs><linearGradient id="_Linear1" x1="0" y1="0" x2="1" y2="0" gradientUnits="userSpaceOnUse" gradientTransform="matrix(20,-20,12.8,31.25,-1.42109e-14,20.8748)"><stop offset="0%" style="stop-color:#18c584;stop-opacity:1"/><stop offset="100%" style="stop-color:#1fcec4;stop-opacity:1"/></linearGradient></defs></svg>