<?xml version="1.0" encoding="UTF-8" standalone="no"?><!DOCTYPE svg PUBLIC "-//W3C//DTD SVG 1.1//EN" "http://www.w3.org/Graphics/SVG/1.1/DTD/svg11.dtd"><svg width="100%" height="100%" viewBox="0 0 20 21" version="1.1" xmlns="http://www.w3.org/2000/svg" xmlns:xlink="http://www.w3.org/1999/xlink" xml:space="preserve" style="fill-rule:evenodd;clip-rule:evenodd;stroke-linecap:round;stroke-linejoin:round;stroke-miterlimit:10;"><g><circle cx="10" cy="10.875" r="10" style="fill:url(#_Linear1);"/><g><path d="M9.839,10.427c0,0.873 -0.708,1.581 -1.581,1.581l-0.357,0c-0.873,0 -1.58,-0.708 -1.58,-1.581l0,-2.039c0,-0.873 0.707,-1.581 1.58,-1.581l0.357,0c0.873,0 1.581,0.708 1.581,1.581l0,2.039Z" style="fill:none;stroke:#fff;stroke-width:0.58px;"/><path d="M7.358,12.046l0,0.775c0,0 -3.228,0.723 -3.205,1.422l0,0.699l3.927,0" style="fill:none;stroke:#fff;stroke-width:0.58px;"/><path d="M8.801,12.821c0,0 3.228,0.723 3.205,1.422l0,0.699l-3.926,0" style="fill:none;stroke:#fff;stroke-width:0.58px;"/><path d="M12.046,7.542l3.801,0" style="fill:none;stroke:#fff;stroke-width:0.58px;"/><path d="M12.046,9.407l3.801,0" style="fill:none;stroke:#fff;stroke-width:0.58px;"/><path d="M12.046,11.272l3.801,0" style="fill:none;stroke:#fff;stroke-width:0.58px;"/></g></g><defs><linearGradient id="_Linear1" x1="0" y1="0" x2="1" y2="0" gradientUnits="userSpaceOnUse" gradientTransform="matrix(20,-20,12.8,31.25,-1.42109e-14,20.8748)"><stop offset="0%" style="stop-color:#18c584;stop-opacity:1"/><stop offset="100%" style="stop-color:#1fcec4;stop-opacity:1"/></linearGradient></defs></svg>