<?xml version="1.0" encoding="UTF-8" standalone="no"?><!DOCTYPE svg PUBLIC "-//W3C//DTD SVG 1.1//EN" "http://www.w3.org/Graphics/SVG/1.1/DTD/svg11.dtd"><svg width="100%" height="100%" viewBox="0 0 100 125" version="1.1" xmlns="http://www.w3.org/2000/svg" xmlns:xlink="http://www.w3.org/1999/xlink" xml:space="preserve" xmlns:serif="http://www.serif.com/" style="fill-rule:evenodd;clip-rule:evenodd;stroke-linejoin:round;stroke-miterlimit:1.41421;"><path d="M37.4,83.5l0,-3.9c0.2,0.1 0.4,0.2 0.6,0.3c2.5,1 5.3,1.5 8.3,1.5l28.9,0c4.5,0 8.2,-3.6 8.2,-8.1c0,-1.1 -0.2,-2.1 -0.6,-3.1c2.6,-1.4 4.3,-4.1 4.3,-7.2c0,-1.5 -0.4,-2.8 -1.1,-4c1.8,-1.5 2.9,-3.7 2.9,-6.2c0,-1.5 -0.4,-2.8 -1.1,-4c1.8,-1.5 2.9,-3.7 2.9,-6.2c0,-4.5 -3.7,-8.1 -8.2,-8.1l-9.9,0l-0.5,0l-8.6,0c1.6,-6.6 1.3,-11.9 -0.9,-15.8c-2.2,-3.7 -5.4,-4.7 -6.4,-4.9c-1.4,-0.4 -3.5,-0.4 -5.3,0.9c-2.3,1.6 -3.4,4.7 -3.4,9.1c0,4.8 -7.8,9.9 -12.3,12.2c-0.3,-0.1 -0.6,-0.1 -0.9,-0.1l-22.2,0c-1.7,0 -3,1.3 -3,3l0,38.7c0,5 4,9 9,9l16.3,0c1.7,-0.1 3,-1.4 3,-3.1Zm16.2,-59.7c0,-3.5 0.9,-4.2 0.9,-4.2l0.1,0c0.1,0.1 0.1,0 0.3,0.1c0.1,0 1.6,0.4 2.7,2.3c1.2,2.1 2,6.3 -0.8,14.6c-0.3,0.9 -0.2,1.9 0.4,2.7c0.6,0.8 1.5,1.2 2.4,1.2l23.2,0c1.2,0 2.2,0.9 2.2,2.1c0,1.2 -1,2.1 -2.2,2.1l-1.9,0l-5,0l-1.9,0c-1.7,0 -3,1.3 -3,3c0,1.7 1.3,3 3,3l6.9,0c1.2,0 2.2,0.9 2.2,2.1c0,1.2 -1,2.1 -2.2,2.1l-1.9,0l-4.1,0l-1.9,0c-1.7,0 -3,1.3 -3,3c0,1.7 1.3,3 3,3l6,0c1.2,0 2.2,0.9 2.2,2.1c0,1.2 -1,2.1 -2.2,2.1l-3.7,0l-1.3,0l-1.9,0c-1.7,0 -3,1.3 -3,3c0,1.7 1.3,3 3,3l3.2,0c1.2,0 2.2,0.9 2.2,2.1c0,1.2 -1,2.1 -2.2,2.1l-1.5,0l-9.1,0l-18.4,0c-2.2,0 -4.3,-0.4 -6.1,-1.1c-1.7,-0.7 -2.5,-1.3 -2.9,-1.8l0,-30.8c4.5,-2.2 16.3,-8.8 16.3,-17.8Zm-22.2,56.7l-13.3,0c-1.7,0 -3,-1.3 -3,-3l0,-35.7l16.3,0l0,38.7Z" style="fill:#ff0842;fill-rule:nonzero;"/></svg>