<?xml version="1.0" encoding="UTF-8" standalone="no"?><!DOCTYPE svg PUBLIC "-//W3C//DTD SVG 1.1//EN" "http://www.w3.org/Graphics/SVG/1.1/DTD/svg11.dtd"><svg width="100%" height="100%" viewBox="0 0 63 64" version="1.1" xmlns="http://www.w3.org/2000/svg" xmlns:xlink="http://www.w3.org/1999/xlink" xml:space="preserve" xmlns:serif="http://www.serif.com/" style="fill-rule:evenodd;clip-rule:evenodd;stroke-linejoin:round;stroke-miterlimit:1.41421;"><g><path d="M56.31,14.112l0.609,-0.082c1.768,2.547 3.15,5.341 4.103,8.292l-4.046,4.041c0.555,2.553 0.731,5.173 0.521,7.777l4.547,3.467c-0.55,3.051 -1.548,6.004 -2.961,8.764l-5.719,-0.003c-1.412,2.197 -3.141,4.174 -5.131,5.867l0.765,5.667c-2.547,1.768 -5.341,3.151 -8.292,4.103l-4.041,-4.045c-2.553,0.555 -5.173,0.73 -7.777,0.52l-3.467,4.548c-3.051,-0.551 -6.004,-1.549 -8.764,-2.962l0.003,-5.718c-2.198,-1.413 -4.175,-3.142 -5.867,-5.131l-5.667,0.764c-1.768,-2.547 -3.151,-5.341 -4.103,-8.291l4.045,-4.042c-0.555,-2.552 -0.73,-5.173 -0.52,-7.777l-4.548,-3.466c0.551,-3.051 1.549,-6.005 2.962,-8.764l5.718,0.002c1.413,-2.197 3.142,-4.174 5.131,-5.867l-0.764,-5.667c2.547,-1.768 5.341,-3.15 8.291,-4.103l4.042,4.046c2.552,-0.555 5.173,-0.731 7.777,-0.521l3.466,-4.548c3.051,0.551 6.005,1.549 8.764,2.962l-0.002,5.158c-1.747,1.039 -3.425,2.192 -5.021,3.451c-0.403,0.318 -0.8,0.642 -1.192,0.973c-5.288,-2.328 -11.531,-2.385 -17.108,0.375c-9.992,4.944 -14.09,17.07 -9.146,27.062c4.945,9.992 17.071,14.09 27.063,9.145c9.569,-4.735 13.732,-16.057 9.724,-25.783c0.563,-0.661 1.107,-1.338 1.631,-2.029c1.423,-1.875 2.704,-3.858 3.827,-5.927c0.402,-0.742 0.785,-1.495 1.147,-2.258Z" style="fill:#ff0842;"/><path d="M15.637,39.823c3.122,-1.273 8.868,-1.763 8.868,-1.763c0,0 -0.509,5.968 -1.837,9.044c-0.216,-0.12 -0.43,-0.244 -0.642,-0.373c-0.773,-0.471 -1.509,-1.003 -2.2,-1.59c-0.266,-0.226 -0.526,-0.46 -0.777,-0.703c-0.369,-0.356 -0.723,-0.728 -1.06,-1.116c-0.685,-0.788 -1.296,-1.641 -1.827,-2.541c-0.184,-0.314 -0.36,-0.633 -0.525,-0.958Z" style="fill:#ff0842;"/><path d="M56.31,14.112l0.609,-0.082c1.768,2.547 3.15,5.341 4.103,8.292l-4.046,4.041c0.555,2.553 0.731,5.173 0.521,7.777l4.547,3.467c-0.55,3.051 -1.548,6.004 -2.961,8.764l-5.719,-0.003c-1.412,2.197 -3.141,4.174 -5.131,5.867l0.765,5.667c-2.547,1.768 -5.341,3.151 -8.292,4.103l-4.041,-4.045c-2.553,0.555 -5.173,0.73 -7.777,0.52l-3.467,4.548c-3.051,-0.551 -6.004,-1.549 -8.764,-2.962l0.003,-5.718c-2.198,-1.413 -4.175,-3.142 -5.867,-5.131l-5.667,0.764c-1.768,-2.547 -3.151,-5.341 -4.103,-8.291l4.045,-4.042c-0.555,-2.552 -0.73,-5.173 -0.52,-7.777l-4.548,-3.466c0.551,-3.051 1.549,-6.005 2.962,-8.764l5.718,0.002c1.413,-2.197 3.142,-4.174 5.131,-5.867l-0.764,-5.667c2.547,-1.768 5.341,-3.15 8.291,-4.103l4.042,4.046c2.552,-0.555 5.173,-0.731 7.777,-0.521l3.466,-4.548c3.051,0.551 6.005,1.549 8.764,2.962l-0.002,5.158c-1.747,1.039 -3.425,2.192 -5.021,3.451c-0.403,0.318 -0.8,0.642 -1.192,0.973c-5.288,-2.328 -11.531,-2.385 -17.108,0.375c-9.992,4.944 -14.09,17.07 -9.146,27.062c4.945,9.992 17.071,14.09 27.063,9.145c9.569,-4.735 13.732,-16.057 9.724,-25.783c0.563,-0.661 1.107,-1.338 1.631,-2.029c1.423,-1.875 2.704,-3.858 3.827,-5.927c0.402,-0.742 0.785,-1.495 1.147,-2.258Z" style="fill:#ff0842;"/><path d="M36.764,19.218c5.332,-5.783 12.132,-10.055 19.712,-12.338c0,0 0,0 0,0c0,0 0,0 0,0c-2.282,7.577 -6.553,14.375 -12.335,19.703l-1.702,6.133l-4.859,6.135l-0.427,-6.709l-4.798,-1.141l-0.088,-0.35l-4.738,4.327l-1.313,0.026l0.785,-0.646l4.86,-5.331l-0.695,-2.776l0.037,-0.049l-0.561,-0.036l-5.418,-0.344l-0.719,-0.046l0.458,-0.363l5.677,-4.496l6.124,-1.699Z" style="fill:#ff0842;"/></g></svg>