<?xml version="1.0" encoding="UTF-8" standalone="no"?><!DOCTYPE svg PUBLIC "-//W3C//DTD SVG 1.1//EN" "http://www.w3.org/Graphics/SVG/1.1/DTD/svg11.dtd"><svg width="100%" height="100%" viewBox="0 0 146 175" version="1.1" xmlns="http://www.w3.org/2000/svg" xmlns:xlink="http://www.w3.org/1999/xlink" xml:space="preserve" xmlns:serif="http://www.serif.com/" style="fill-rule:evenodd;clip-rule:evenodd;stroke-linejoin:round;stroke-miterlimit:1.41421;"><g><rect x="0.44" y="0.332" width="145.218" height="174.262" style="fill:url(#_Linear1);"/><g transform="matrix(1.84516,0,0,1.84516,-5491.81,-4615.5)"><path d="M3009.63,2561.72l-1.619,-4.899l-10.462,0l-1.619,4.899l-7.555,0l10.129,-29.226l8.635,0l10.088,29.226l-7.597,0Zm-10.296,-10.295l6.891,0l-3.445,-10.379l-3.446,10.379Z" style="fill:#fff;fill-rule:nonzero;"/><path d="M3036.45,2538.55l7.099,0l0,23.165l-7.099,0l0,-3.404c-1.467,2.435 -3.805,3.653 -7.016,3.653c-2.656,0 -4.808,-0.886 -6.455,-2.657c-1.647,-1.771 -2.47,-4.179 -2.47,-7.223l0,-13.534l7.057,0l0,12.579c0,1.495 0.395,2.65 1.184,3.466c0.788,0.817 1.875,1.225 3.258,1.225c1.384,0 2.47,-0.408 3.259,-1.225c0.789,-0.816 1.183,-1.971 1.183,-3.466l0,-12.579Z" style="fill:#fff;fill-rule:nonzero;"/><path d="M2988.64,2575.7l7.712,0l0,1.088l-4.576,10.56l-1.6,0l4.784,-10.416l-6.32,0l0,-1.232Z" style="fill:#fff;fill-rule:nonzero;"/><path d="M2999.66,2579.19c0,0.757 0.216,1.371 0.648,1.84c0.432,0.469 1.045,0.704 1.84,0.704c0.795,0 1.395,-0.224 1.8,-0.672c0.405,-0.448 0.608,-1.067 0.608,-1.856c0,-0.789 -0.216,-1.416 -0.648,-1.88c-0.432,-0.464 -1.027,-0.696 -1.784,-0.696c-0.757,0 -1.357,0.235 -1.8,0.704c-0.443,0.469 -0.664,1.088 -0.664,1.856Zm2.64,6.912c0.853,0 1.477,-0.328 1.872,-0.984c0.395,-0.656 0.592,-1.805 0.592,-3.448c-0.277,0.427 -0.664,0.752 -1.16,0.976c-0.496,0.224 -1.032,0.336 -1.608,0.336c-1.056,0 -1.939,-0.333 -2.648,-1c-0.709,-0.667 -1.064,-1.581 -1.064,-2.744c0,-1.163 0.336,-2.093 1.008,-2.792c0.672,-0.699 1.605,-1.048 2.8,-1.048c1.397,0 2.4,0.477 3.008,1.432c0.608,0.955 0.912,2.453 0.912,4.496c0,2.043 -0.28,3.555 -0.84,4.536c-0.56,0.981 -1.544,1.472 -2.952,1.472c-1.077,0 -1.92,-0.283 -2.528,-0.848c-0.608,-0.565 -0.971,-1.275 -1.088,-2.128l1.328,0c0.245,1.163 1.035,1.744 2.368,1.744Z" style="fill:#fff;fill-rule:nonzero;"/></g><path d="M60.156,27.232c-0.166,0.198 -0.393,0.41 -0.68,0.637c-0.288,0.227 -0.648,0.438 -1.083,0.633c-0.434,0.194 -0.947,0.357 -1.538,0.488c-0.591,0.131 -1.269,0.197 -2.036,0.197c-0.901,0 -1.723,-0.149 -2.467,-0.446c-0.745,-0.297 -1.382,-0.733 -1.912,-1.308c-0.53,-0.575 -0.941,-1.281 -1.231,-2.117c-0.291,-0.837 -0.436,-1.795 -0.436,-2.875l0,-0.824c0,-1.08 0.139,-2.039 0.417,-2.88c0.277,-0.84 0.67,-1.547 1.178,-2.122c0.508,-0.575 1.123,-1.012 1.845,-1.313c0.722,-0.3 1.523,-0.45 2.405,-0.45c0.907,0 1.691,0.113 2.352,0.34c0.661,0.227 1.214,0.545 1.658,0.954c0.444,0.408 0.79,0.897 1.04,1.466c0.249,0.568 0.412,1.191 0.488,1.868l-2.798,0c-0.057,-0.351 -0.147,-0.669 -0.268,-0.953c-0.121,-0.285 -0.287,-0.527 -0.498,-0.729c-0.211,-0.201 -0.471,-0.356 -0.781,-0.464c-0.31,-0.109 -0.679,-0.163 -1.107,-0.163c-0.984,0 -1.731,0.372 -2.242,1.116c-0.511,0.744 -0.767,1.848 -0.767,3.311l0,0.843c0,1.463 0.278,2.568 0.834,3.315c0.556,0.748 1.37,1.121 2.443,1.121c0.345,0 0.646,-0.022 0.901,-0.067c0.256,-0.044 0.474,-0.1 0.656,-0.167c0.183,-0.067 0.334,-0.141 0.456,-0.221c0.121,-0.08 0.22,-0.158 0.297,-0.234l0,-2.406l-2.616,0l0,-2.117l5.49,0l0,5.567Z" style="fill:#fff;fill-rule:nonzero;"/><path d="M73.945,22.336c0,1.066 -0.144,2.023 -0.431,2.869c-0.288,0.847 -0.692,1.564 -1.212,2.152c-0.521,0.587 -1.146,1.039 -1.874,1.355c-0.728,0.317 -1.53,0.475 -2.405,0.475c-0.875,0 -1.677,-0.158 -2.405,-0.475c-0.728,-0.316 -1.356,-0.768 -1.883,-1.355c-0.527,-0.588 -0.937,-1.305 -1.231,-2.152c-0.294,-0.846 -0.441,-1.803 -0.441,-2.869l0,-0.614c0,-1.06 0.145,-2.015 0.436,-2.865c0.291,-0.849 0.698,-1.571 1.222,-2.165c0.524,-0.594 1.15,-1.05 1.878,-1.366c0.728,-0.316 1.53,-0.474 2.405,-0.474c0.875,0 1.677,0.158 2.405,0.474c0.728,0.316 1.354,0.772 1.878,1.366c0.524,0.594 0.931,1.316 1.222,2.165c0.29,0.85 0.436,1.805 0.436,2.865l0,0.614Zm-2.913,-0.633c0,-1.463 -0.262,-2.574 -0.786,-3.334c-0.524,-0.761 -1.271,-1.141 -2.242,-1.141c-0.971,0 -1.718,0.38 -2.242,1.141c-0.524,0.76 -0.786,1.871 -0.786,3.334l0,0.633c0,0.728 0.069,1.371 0.206,1.93c0.137,0.559 0.335,1.029 0.594,1.409c0.259,0.38 0.577,0.667 0.954,0.862c0.376,0.195 0.808,0.293 1.293,0.293c0.971,0 1.715,-0.384 2.233,-1.15c0.517,-0.767 0.776,-1.882 0.776,-3.344l0,-0.633Z" style="fill:#fff;fill-rule:nonzero;"/><path d="M78.908,26.686l6.104,0l0,2.309l-8.978,0l0,-13.951l2.874,0l0,11.642Z" style="fill:#fff;fill-rule:nonzero;"/><path d="M86.66,28.995l0,-13.951l4.293,0c0.939,0 1.8,0.161 2.582,0.483c0.783,0.323 1.454,0.777 2.013,1.361c0.559,0.585 0.995,1.286 1.308,2.103c0.313,0.818 0.469,1.725 0.469,2.722l0,0.632c0,0.997 -0.155,1.902 -0.465,2.717c-0.31,0.814 -0.747,1.514 -1.312,2.098c-0.566,0.585 -1.241,1.037 -2.027,1.356c-0.786,0.319 -1.651,0.479 -2.597,0.479l-4.264,0Zm2.875,-11.623l0,9.314l1.389,0c1.137,0 2.003,-0.375 2.597,-1.126c0.594,-0.751 0.891,-1.822 0.891,-3.215l0,-0.651c0,-1.419 -0.294,-2.493 -0.881,-3.225c-0.588,-0.731 -1.447,-1.097 -2.578,-1.097l-1.418,0Z" style="fill:#fff;fill-rule:nonzero;"/></g><defs><linearGradient id="_Linear1" x1="0" y1="0" x2="1" y2="0" gradientUnits="userSpaceOnUse" gradientTransform="matrix(6.68466e-13,-174.262,174.262,6.68466e-13,73.0489,174.594)"><stop offset="0" style="stop-color:#821045;stop-opacity:1"/><stop offset="1" style="stop-color:#51184f;stop-opacity:1"/></linearGradient></defs></svg>