<?xml version="1.0" encoding="UTF-8" standalone="no"?><!DOCTYPE svg PUBLIC "-//W3C//DTD SVG 1.1//EN" "http://www.w3.org/Graphics/SVG/1.1/DTD/svg11.dtd"><svg width="100%" height="100%" viewBox="0 0 146 175" version="1.1" xmlns="http://www.w3.org/2000/svg" xmlns:xlink="http://www.w3.org/1999/xlink" xml:space="preserve" xmlns:serif="http://www.serif.com/" style="fill-rule:evenodd;clip-rule:evenodd;stroke-linejoin:round;stroke-miterlimit:1.41421;"><g><rect x="0.141" y="0.332" width="145.218" height="174.262" style="fill:url(#_Radial1);"/><g transform="matrix(1.84516,0,0,1.84516,-5479.91,-4616.09)"><path d="M3013.32,2541.5c0,1.965 -0.705,3.861 -2.117,5.687c-0.747,0.941 -1.861,1.709 -3.342,2.304c-1.48,0.595 -3.231,0.893 -5.251,0.893l-4.401,0l0,11.333l-7.098,0l0,-29.142l11.499,0c3.376,0 6.005,0.871 7.887,2.615c1.882,1.743 2.823,3.847 2.823,6.31Zm-15.111,3.487l4.401,0c1.079,0 1.93,-0.318 2.553,-0.955c0.623,-0.636 0.934,-1.473 0.934,-2.511c0,-1.038 -0.318,-1.889 -0.955,-2.553c-0.636,-0.665 -1.481,-0.997 -2.532,-0.997l-4.401,0l0,7.016Z" style="fill:#fff;fill-rule:nonzero;"/><path d="M3027.44,2555.7l2.532,0l0,6.019l-3.612,0c-2.601,0 -4.614,-0.574 -6.04,-1.723c-1.425,-1.148 -2.138,-3.12 -2.138,-5.915l0,-9.632l-2.158,0l0,-5.895l2.158,0l0,-5.645l7.099,0l0,5.645l4.65,0l0,5.895l-4.65,0l0,9.632c0,1.079 0.72,1.619 2.159,1.619Z" style="fill:#fff;fill-rule:nonzero;"/><path d="M2988.64,2575.7l7.712,0l0,1.088l-4.576,10.56l-1.6,0l4.784,-10.416l-6.32,0l0,-1.232Z" style="fill:#fff;fill-rule:nonzero;"/><path d="M3004.7,2584.04c0,-0.736 -0.245,-1.299 -0.736,-1.688c-0.491,-0.389 -1.133,-0.584 -1.928,-0.584c-0.795,0 -1.443,0.195 -1.944,0.584c-0.501,0.389 -0.752,0.955 -0.752,1.696c0,0.741 0.243,1.325 0.728,1.752c0.485,0.427 1.139,0.64 1.96,0.64c0.821,0 1.472,-0.216 1.952,-0.648c0.48,-0.432 0.72,-1.016 0.72,-1.752Zm-0.288,-5.488c0,-0.619 -0.211,-1.107 -0.632,-1.464c-0.421,-0.357 -1.003,-0.536 -1.744,-0.536c-0.741,0 -1.325,0.179 -1.752,0.536c-0.427,0.357 -0.64,0.845 -0.64,1.464c0,0.619 0.221,1.117 0.664,1.496c0.443,0.379 1.016,0.568 1.72,0.568c0.704,0 1.277,-0.189 1.72,-0.568c0.443,-0.379 0.664,-0.877 0.664,-1.496Zm-6.144,-0.096c0,-0.907 0.328,-1.656 0.984,-2.248c0.656,-0.592 1.584,-0.888 2.784,-0.888c1.2,0 2.125,0.299 2.776,0.896c0.651,0.597 0.976,1.349 0.976,2.256c0,0.619 -0.16,1.16 -0.48,1.624c-0.32,0.464 -0.736,0.808 -1.248,1.032c0.608,0.203 1.099,0.568 1.472,1.096c0.373,0.528 0.56,1.16 0.56,1.896c0,1.077 -0.373,1.939 -1.12,2.584c-0.747,0.645 -1.728,0.968 -2.944,0.968c-1.216,0 -2.197,-0.323 -2.944,-0.968c-0.747,-0.645 -1.12,-1.507 -1.12,-2.584c0,-0.736 0.187,-1.368 0.56,-1.896c0.373,-0.528 0.869,-0.893 1.488,-1.096c-1.163,-0.555 -1.744,-1.445 -1.744,-2.672Z" style="fill:#fff;fill-rule:nonzero;"/></g><path d="M28.208,24.079l0,4.916l-2.875,0l0,-13.951l5.443,0c0.824,0 1.56,0.115 2.209,0.345c0.648,0.23 1.197,0.551 1.648,0.963c0.45,0.412 0.793,0.9 1.03,1.466c0.236,0.565 0.354,1.18 0.354,1.844c0,0.677 -0.118,1.287 -0.354,1.83c-0.237,0.543 -0.58,1.006 -1.03,1.39c-0.451,0.383 -1,0.678 -1.648,0.886c-0.649,0.208 -1.385,0.311 -2.209,0.311l-2.568,0Zm0,-2.328l2.568,0c0.409,0 0.762,-0.051 1.059,-0.153c0.297,-0.102 0.54,-0.245 0.728,-0.427c0.188,-0.182 0.327,-0.401 0.417,-0.656c0.089,-0.256 0.134,-0.533 0.134,-0.834c0,-0.3 -0.045,-0.589 -0.134,-0.867c-0.09,-0.278 -0.229,-0.524 -0.417,-0.738c-0.188,-0.214 -0.431,-0.385 -0.728,-0.512c-0.297,-0.128 -0.65,-0.192 -1.059,-0.192l-2.568,0l0,4.379Z" style="fill:#fff;fill-rule:nonzero;"/><path d="M40.866,26.686l6.104,0l0,2.309l-8.979,0l0,-13.951l2.875,0l0,11.642Z" style="fill:#fff;fill-rule:nonzero;"/><path d="M56.676,26.12l-5.04,0l-0.958,2.875l-3.057,0l5.194,-13.951l2.663,0l5.223,13.951l-3.057,0l-0.968,-2.875Zm-4.264,-2.328l3.488,0l-1.753,-5.222l-1.735,5.222Z" style="fill:#fff;fill-rule:nonzero;"/><path d="M71.356,17.372l-4.274,0l0,11.623l-2.874,0l0,-11.623l-4.216,0l0,-2.328l11.364,0l0,2.328Z" style="fill:#fff;fill-rule:nonzero;"/><rect x="73.177" y="15.044" width="2.875" height="13.951" style="fill:#fff;fill-rule:nonzero;"/><path d="M90.06,28.995l-2.875,0l-5.595,-9.18l0,9.18l-2.875,0l0,-13.951l2.875,0l5.605,9.198l0,-9.198l2.865,0l0,13.951Z" style="fill:#fff;fill-rule:nonzero;"/><path d="M103.13,15.044l0,9.208c0,0.805 -0.134,1.516 -0.402,2.132c-0.269,0.616 -0.639,1.132 -1.112,1.547c-0.473,0.416 -1.036,0.729 -1.691,0.94c-0.655,0.21 -1.369,0.316 -2.142,0.316c-0.779,0 -1.496,-0.106 -2.151,-0.316c-0.655,-0.211 -1.218,-0.524 -1.691,-0.94c-0.473,-0.415 -0.842,-0.931 -1.107,-1.547c-0.265,-0.616 -0.398,-1.327 -0.398,-2.132l0,-9.208l2.875,0l0,9.208c0,0.913 0.219,1.579 0.656,1.998c0.438,0.418 1.043,0.627 1.816,0.627c0.78,0 1.385,-0.209 1.816,-0.627c0.431,-0.419 0.647,-1.085 0.647,-1.998l0,-9.208l2.884,0Z" style="fill:#fff;fill-rule:nonzero;"/><path d="M109.243,15.044l3.584,10.118l3.565,-10.118l3.775,0l0,13.951l-2.884,0l0,-3.814l0.287,-6.582l-3.766,10.396l-1.973,0l-3.757,-10.387l0.288,6.573l0,3.814l-2.875,0l0,-13.951l3.756,0Z" style="fill:#fff;fill-rule:nonzero;"/></g><defs><radialGradient id="_Radial1" cx="0" cy="0" r="1" gradientUnits="userSpaceOnUse" gradientTransform="matrix(173.881,0,0,173.881,72.7501,174.213)"><stop offset="0" style="stop-color:#692869;stop-opacity:1"/><stop offset="1" style="stop-color:#343181;stop-opacity:1"/></radialGradient></defs></svg>