<?xml version="1.0" encoding="UTF-8" standalone="no"?><!DOCTYPE svg PUBLIC "-//W3C//DTD SVG 1.1//EN" "http://www.w3.org/Graphics/SVG/1.1/DTD/svg11.dtd"><svg width="100%" height="100%" viewBox="0 0 146 175" version="1.1" xmlns="http://www.w3.org/2000/svg" xmlns:xlink="http://www.w3.org/1999/xlink" xml:space="preserve" xmlns:serif="http://www.serif.com/" style="fill-rule:evenodd;clip-rule:evenodd;stroke-linejoin:round;stroke-miterlimit:1.41421;"><g><rect x="0.739" y="0.332" width="145.218" height="174.262" style="fill:url(#_Linear1);"/><g transform="matrix(1.84516,0,0,1.84516,-5491.51,-4615.5)"><path d="M3009.63,2561.72l-1.619,-4.899l-10.462,0l-1.619,4.899l-7.555,0l10.129,-29.226l8.635,0l10.088,29.226l-7.597,0Zm-10.296,-10.295l6.891,0l-3.445,-10.379l-3.446,10.379Z" style="fill:#fff;fill-rule:nonzero;"/><path d="M3022.08,2558.69c-2.048,-2.215 -3.072,-5.051 -3.072,-8.511c0,-3.459 1.024,-6.303 3.072,-8.531c2.048,-2.228 4.545,-3.342 7.493,-3.342c2.947,0 5.21,1.094 6.787,3.28l0,-3.031l7.099,0l0,23.04c0,3.239 -0.886,5.937 -2.657,8.096c-0.885,1.107 -2.096,1.965 -3.632,2.573c-1.536,0.609 -3.314,0.914 -5.335,0.914c-3.542,0 -6.351,-0.72 -8.427,-2.159c-2.076,-1.439 -3.252,-3.639 -3.529,-6.601l6.975,0c0.664,1.744 2.324,2.616 4.981,2.616c1.301,0 2.38,-0.436 3.238,-1.308c0.858,-0.872 1.287,-2.249 1.287,-4.131l0,-3.238c-1.716,2.436 -4.013,3.654 -6.891,3.654c-2.878,0 -5.341,-1.107 -7.389,-3.321Zm12.744,-4.318c1.024,-0.996 1.536,-2.408 1.536,-4.234c0,-1.827 -0.512,-3.231 -1.536,-4.214c-1.024,-0.982 -2.2,-1.474 -3.528,-1.474c-1.329,0 -2.505,0.499 -3.529,1.495c-1.024,0.996 -1.536,2.408 -1.536,4.234c0,1.827 0.512,3.231 1.536,4.214c1.024,0.982 2.2,1.474 3.529,1.474c1.328,0 2.504,-0.499 3.528,-1.495Z" style="fill:#fff;fill-rule:nonzero;"/><path d="M2994.72,2583.51l0,-6.336l-4.304,6.336l4.304,0Zm-0.048,3.84l0,-2.592l-5.952,0l0,-1.024l5.504,-7.904l1.856,0l0,7.68l1.552,0l0,1.248l-1.552,0l0,2.592l-1.408,0Z" style="fill:#fff;fill-rule:nonzero;"/><path d="M2998.78,2575.7l7.712,0l0,1.088l-4.576,10.56l-1.6,0l4.784,-10.416l-6.32,0l0,-1.232Z" style="fill:#fff;fill-rule:nonzero;"/></g><path d="M50.288,25.335c0,-0.243 -0.035,-0.462 -0.105,-0.657c-0.07,-0.194 -0.206,-0.375 -0.407,-0.541c-0.201,-0.166 -0.479,-0.329 -0.834,-0.489c-0.354,-0.159 -0.813,-0.329 -1.375,-0.508c-0.639,-0.204 -1.241,-0.434 -1.806,-0.689c-0.565,-0.256 -1.06,-0.558 -1.485,-0.906c-0.425,-0.348 -0.76,-0.749 -1.006,-1.203c-0.246,-0.453 -0.369,-0.983 -0.369,-1.59c0,-0.581 0.126,-1.113 0.378,-1.596c0.253,-0.482 0.607,-0.892 1.064,-1.231c0.457,-0.338 1,-0.602 1.629,-0.79c0.629,-0.189 1.32,-0.283 2.074,-0.283c0.773,0 1.476,0.107 2.108,0.321c0.633,0.214 1.173,0.513 1.62,0.896c0.447,0.383 0.792,0.838 1.035,1.365c0.242,0.527 0.364,1.104 0.364,1.73l-2.875,0c0,-0.294 -0.046,-0.565 -0.139,-0.815c-0.093,-0.249 -0.235,-0.463 -0.426,-0.642c-0.192,-0.178 -0.431,-0.317 -0.719,-0.416c-0.287,-0.099 -0.626,-0.149 -1.016,-0.149c-0.377,0 -0.704,0.042 -0.982,0.125c-0.278,0.083 -0.508,0.198 -0.69,0.345c-0.182,0.147 -0.319,0.319 -0.412,0.517c-0.092,0.198 -0.139,0.409 -0.139,0.632c0,0.46 0.235,0.845 0.705,1.155c0.469,0.31 1.157,0.599 2.065,0.867c0.76,0.237 1.429,0.499 2.007,0.786c0.578,0.287 1.06,0.613 1.447,0.977c0.386,0.364 0.679,0.773 0.877,1.227c0.198,0.453 0.297,0.968 0.297,1.543c0,0.613 -0.12,1.159 -0.36,1.638c-0.239,0.479 -0.579,0.883 -1.02,1.212c-0.441,0.329 -0.973,0.582 -1.596,0.757c-0.622,0.176 -1.317,0.264 -2.084,0.264c-0.46,0 -0.92,-0.04 -1.379,-0.12c-0.46,-0.08 -0.9,-0.203 -1.318,-0.369c-0.418,-0.166 -0.806,-0.374 -1.164,-0.623c-0.358,-0.249 -0.669,-0.543 -0.934,-0.881c-0.266,-0.339 -0.473,-0.724 -0.623,-1.155c-0.15,-0.431 -0.225,-0.909 -0.225,-1.433l2.884,0c0,0.422 0.067,0.78 0.201,1.074c0.134,0.294 0.321,0.531 0.56,0.714c0.24,0.182 0.529,0.314 0.868,0.397c0.338,0.083 0.715,0.125 1.13,0.125c0.371,0 0.693,-0.04 0.968,-0.12c0.275,-0.08 0.502,-0.19 0.68,-0.331c0.179,-0.14 0.312,-0.308 0.398,-0.503c0.086,-0.194 0.129,-0.404 0.129,-0.627Z" style="fill:#fff;fill-rule:nonzero;"/><rect x="55.3" y="15.044" width="2.875" height="13.951" style="fill:#fff;fill-rule:nonzero;"/><path d="M63.713,26.686l6.104,0l0,2.309l-8.979,0l0,-13.951l2.875,0l0,11.642Z" style="fill:#fff;fill-rule:nonzero;"/><path d="M74.646,25.536l3.162,-10.492l3.201,0l-4.859,13.951l-2.999,0l-4.839,-13.951l3.191,0l3.143,10.492Z" style="fill:#fff;fill-rule:nonzero;"/><path d="M90.715,22.949l-5.519,0l0,3.737l6.477,0l0,2.309l-9.352,0l0,-13.951l9.333,0l0,2.328l-6.458,0l0,3.325l5.519,0l0,2.252Z" style="fill:#fff;fill-rule:nonzero;"/><path d="M98.525,23.888l-2.291,0l0,5.107l-2.874,0l0,-13.951l5.184,0c0.805,0 1.526,0.091 2.165,0.273c0.639,0.182 1.179,0.45 1.62,0.805c0.44,0.354 0.779,0.793 1.015,1.317c0.237,0.524 0.355,1.131 0.355,1.821c0,0.511 -0.058,0.969 -0.173,1.375c-0.115,0.405 -0.281,0.766 -0.498,1.083c-0.217,0.316 -0.479,0.592 -0.786,0.828c-0.306,0.237 -0.651,0.441 -1.034,0.614l3.018,5.701l0,0.134l-3.086,0l-2.615,-5.107Zm-2.291,-2.329l2.319,0c0.377,0 0.708,-0.049 0.992,-0.148c0.284,-0.099 0.521,-0.24 0.709,-0.422c0.189,-0.182 0.331,-0.399 0.426,-0.651c0.096,-0.253 0.144,-0.535 0.144,-0.848c0,-0.658 -0.187,-1.176 -0.56,-1.553c-0.374,-0.377 -0.947,-0.565 -1.72,-0.565l-2.31,0l0,4.187Z" style="fill:#fff;fill-rule:nonzero;"/></g><defs><linearGradient id="_Linear1" x1="0" y1="0" x2="1" y2="0" gradientUnits="userSpaceOnUse" gradientTransform="matrix(6.67735e-13,-174.071,174.071,6.67735e-13,73.3477,174.594)"><stop offset="0" style="stop-color:#b6093a;stop-opacity:1"/><stop offset="1" style="stop-color:#821045;stop-opacity:1"/></linearGradient></defs></svg>