<?xml version="1.0" encoding="UTF-8" standalone="no"?>
<!DOCTYPE svg PUBLIC "-//W3C//DTD SVG 1.1//EN" "http://www.w3.org/Graphics/SVG/1.1/DTD/svg11.dtd">
<svg width="100%" height="100%" viewBox="0 0 325 163" version="1.1" xmlns="http://www.w3.org/2000/svg" xmlns:xlink="http://www.w3.org/1999/xlink" xml:space="preserve" style="fill-rule:evenodd;clip-rule:evenodd;stroke-linejoin:round;stroke-miterlimit:1.41421;">
    <g transform="matrix(1,0,0,1,-8152,-1640)">
        <g>
            <g transform="matrix(1,0,0,1,-2.56171,0)">
                <circle cx="8207.5" cy="1692.5" r="52.5" style="fill:rgb(148,210,55);"/>
                <g transform="matrix(1.77235,0,0,1.77235,-6333.01,-1324.4)">
                    <path d="M8196.74,1690.43L8189.45,1714.17C8186.73,1723.17 8188.98,1730.7 8198.06,1730.7C8207.45,1730.7 8214.28,1722.32 8219.78,1710.29C8219.01,1709.36 8216.84,1708.2 8215.36,1708.12C8211.02,1716.97 8206.83,1722.78 8202.48,1722.78C8199.46,1722.78 8198.99,1720.15 8200,1716.81L8208.07,1690.43L8196.74,1690.43ZM8199.15,1679.33C8199.15,1683.06 8202.02,1685.93 8205.74,1685.93C8209.54,1685.93 8212.41,1683.06 8212.41,1679.33C8212.41,1675.61 8209.54,1672.58 8205.74,1672.58C8202.02,1672.58 8199.15,1675.61 8199.15,1679.33Z" style="fill:white;fill-rule:nonzero;"/>
                </g>
            </g>
            <g transform="matrix(1.35074,0,0,1.35074,-2863.48,-643.449)">
                <text x="8155.43px" y="1790px" style="font-family:'HelveticaNeue-Bold', 'Helvetica Neue';font-weight:700;font-size:17.157px;fill:none;">I<tspan x="8161.35px 8174.92px 8185.95px 8200.16px 8213.4px 8229.82px 8240.85px 8252.19px 8258.11px 8272.32px 8285.89px 8291.52px 8307.94px 8320.55px 8333.79px 8347.04px 8360.61px 8373.22px " y="1790px 1790px 1790px 1790px 1790px 1790px 1790px 1790px 1790px 1790px 1790px 1790px 1790px 1790px 1790px 1790px 1790px 1790px ">NFORMATION MARKHAM</tspan></text>
                <text x="8166.47px" y="1810.59px" style="font-family:'HelveticaNeue-Bold', 'Helvetica Neue';font-weight:700;font-size:17.157px;fill:none;">&amp;<tspan x="8179.08px 8184.71px 8196.37px 8210.58px 8221.61px 8235.18px 8248.76px 8260.1px 8272.07px 8284.05px 8297.29px 8302.92px 8316.49px 8328.47px 8342.04px 8353.38px 8366.62px " y="1810.59px 1810.59px 1810.59px 1810.59px 1810.59px 1810.59px 1810.59px 1810.59px 1810.59px 1810.59px 1810.59px 1810.59px 1810.59px 1810.59px 1810.59px 1810.59px 1810.59px "> VOLUNTEER CENTRE</tspan></text>
                <text x="8155.43px" y="1790px" style="font-family:'HelveticaNeue-Bold', 'Helvetica Neue';font-weight:700;font-size:17.157px;fill:rgb(3,50,124);">I<tspan x="8161.35px 8174.92px 8185.95px 8200.16px 8213.4px 8229.82px 8240.85px 8252.19px 8258.11px 8272.32px 8285.89px 8291.52px 8307.94px 8320.55px 8333.79px 8347.04px 8360.61px 8373.22px " y="1790px 1790px 1790px 1790px 1790px 1790px 1790px 1790px 1790px 1790px 1790px 1790px 1790px 1790px 1790px 1790px 1790px 1790px ">NFORMATION MARKHAM</tspan></text>
                <text x="8166.47px" y="1810.59px" style="font-family:'HelveticaNeue-Bold', 'Helvetica Neue';font-weight:700;font-size:17.157px;fill:rgb(3,50,124);">&amp;<tspan x="8179.08px 8184.71px 8196.37px 8210.58px 8221.61px 8235.18px 8248.76px 8260.1px 8272.07px 8284.05px 8297.29px 8302.92px 8316.49px 8328.47px 8342.04px 8353.38px 8366.62px " y="1810.59px 1810.59px 1810.59px 1810.59px 1810.59px 1810.59px 1810.59px 1810.59px 1810.59px 1810.59px 1810.59px 1810.59px 1810.59px 1810.59px 1810.59px 1810.59px 1810.59px "> VOLUNTEER CENTRE</tspan></text>
            </g>
            <path d="M8475.28,1700.01L8452.9,1700.01L8452.4,1696.68C8452.38,1696.56 8452.36,1696.44 8452.34,1696.32C8452.25,1695.93 8452.16,1695.54 8452.03,1695.15C8451.79,1694.44 8451.46,1693.76 8451.06,1693.13C8450.78,1692.7 8450.48,1692.28 8450.16,1691.89C8449.32,1690.89 8448.34,1690.02 8447.24,1689.33C8446.4,1688.8 8445.5,1688.38 8444.56,1688.05C8443.56,1687.71 8442.53,1687.49 8441.48,1687.4C8440.77,1687.34 8440.06,1687.35 8439.35,1687.38C8437.6,1687.45 8435.85,1687.74 8434.22,1688.4C8433.69,1688.62 8433.17,1688.88 8432.67,1689.17C8432.29,1689.4 8431.91,1689.65 8431.55,1689.91C8430.92,1690.37 8430.33,1690.88 8429.8,1691.43C8429.42,1691.82 8429.07,1692.23 8428.75,1692.66C8428.32,1693.23 8427.93,1693.83 8427.59,1694.44C8426.91,1695.63 8426.36,1696.89 8425.94,1698.19C8425.47,1699.63 8425.14,1701.11 8424.9,1702.61C8424.78,1703.38 8424.68,1704.16 8424.61,1704.94C8424.5,1706.09 8424.45,1707.25 8424.45,1708.41C8424.45,1709.51 8424.5,1710.61 8424.61,1711.7C8424.69,1712.53 8424.8,1713.36 8424.94,1714.18C8425.1,1715.07 8425.29,1715.95 8425.52,1716.83C8425.97,1718.49 8426.61,1720.11 8427.46,1721.61C8427.84,1722.29 8428.26,1722.95 8428.73,1723.56C8429.32,1724.33 8429.99,1725.04 8430.74,1725.66C8431.28,1726.13 8431.87,1726.55 8432.49,1726.92C8433.04,1727.26 8433.62,1727.56 8434.22,1727.81C8435.64,1728.38 8437.15,1728.67 8438.67,1728.79C8439.47,1728.85 8440.28,1728.87 8441.09,1728.84C8442.98,1728.76 8444.9,1728.39 8446.58,1727.48C8447.16,1727.16 8447.7,1726.78 8448.2,1726.35C8448.51,1726.09 8448.79,1725.8 8449.07,1725.5C8449.4,1725.13 8449.71,1724.74 8450,1724.34C8451.13,1722.77 8451.91,1720.97 8452.41,1719.1C8452.58,1718.45 8452.73,1717.78 8452.84,1717.11C8452.9,1716.79 8452.94,1716.46 8452.99,1716.13L8453.44,1712.65L8475.88,1712.65L8476.19,1713C8476.07,1714.32 8475.96,1715.64 8475.84,1716.97C8475.76,1717.8 8475.66,1718.62 8475.54,1719.45C8475.25,1721.41 8474.83,1723.35 8474.26,1725.25C8473.88,1726.55 8473.42,1727.83 8472.9,1729.07C8471.41,1732.59 8469.39,1735.88 8466.82,1738.72C8465.17,1740.55 8463.3,1742.19 8461.26,1743.59C8458.17,1745.71 8454.69,1747.26 8451.08,1748.25C8447.4,1749.24 8443.59,1749.65 8439.78,1749.61C8436.22,1749.57 8432.65,1749.15 8429.21,1748.25C8427.81,1747.88 8426.43,1747.43 8425.08,1746.9C8424,1746.47 8422.94,1746 8421.9,1745.47C8420.52,1744.78 8419.19,1744.01 8417.91,1743.15C8416.06,1741.91 8414.33,1740.49 8412.75,1738.92C8412.02,1738.2 8411.32,1737.43 8410.65,1736.65C8409.79,1735.62 8408.98,1734.55 8408.23,1733.43C8407.43,1732.25 8406.7,1731.02 8406.03,1729.75C8405.4,1728.54 8404.82,1727.28 8404.31,1726C8403.7,1724.47 8403.17,1722.9 8402.73,1721.31C8401.62,1717.28 8401.1,1713.11 8401.06,1708.93C8401.02,1704.67 8401.45,1700.39 8402.47,1696.24C8403.34,1692.71 8404.64,1689.27 8406.36,1686.06C8407.68,1683.6 8409.27,1681.28 8411.09,1679.15C8412.24,1677.82 8413.49,1676.57 8414.83,1675.42C8416.79,1673.74 8418.94,1672.28 8421.22,1671.05C8422.69,1670.27 8424.21,1669.57 8425.77,1668.98C8426.89,1668.56 8428.03,1668.19 8429.19,1667.88C8432.1,1667.11 8435.11,1666.68 8438.12,1666.54C8439.8,1666.47 8441.48,1666.47 8443.16,1666.58C8445.33,1666.72 8447.48,1667.03 8449.59,1667.52C8452.65,1668.22 8455.63,1669.3 8458.41,1670.76C8459.79,1671.49 8461.13,1672.32 8462.4,1673.23C8463.27,1673.86 8464.11,1674.53 8464.91,1675.24C8465.91,1676.13 8466.84,1677.08 8467.7,1678.08C8468.75,1679.29 8469.7,1680.59 8470.55,1681.95C8471.04,1682.73 8471.49,1683.53 8471.91,1684.35C8473.15,1686.78 8474.05,1689.38 8474.62,1692.05C8474.88,1693.23 8475.07,1694.42 8475.22,1695.62L8475.67,1699.56L8475.28,1700.01ZM8375.42,1747.99L8352.07,1747.99L8326.67,1669.47L8327.58,1668.21L8350.46,1668.21C8354.95,1682.39 8359.44,1696.57 8363.93,1710.75L8377.57,1668.21L8400.54,1668.21L8401.47,1669.51L8375.42,1747.99ZM8260.86,1747.99L8238.48,1747.99L8238.48,1668.21L8267.29,1668.21C8272.03,1682.15 8276.77,1696.1 8281.51,1710.04L8294.97,1668.21L8323.83,1668.21L8323.83,1747.99L8301.44,1747.99L8301.44,1714.75L8289.95,1747.99L8272.37,1747.99L8260.86,1715.05L8260.86,1747.99Z" style="fill:rgb(3,50,124);"/>
        </g>
    </g>
</svg>
