<?xml version="1.0" encoding="UTF-8" standalone="no"?><!DOCTYPE svg PUBLIC "-//W3C//DTD SVG 1.1//EN" "http://www.w3.org/Graphics/SVG/1.1/DTD/svg11.dtd"><svg width="100%" height="100%" viewBox="0 0 146 175" version="1.1" xmlns="http://www.w3.org/2000/svg" xmlns:xlink="http://www.w3.org/1999/xlink" xml:space="preserve" xmlns:serif="http://www.serif.com/" style="fill-rule:evenodd;clip-rule:evenodd;stroke-linejoin:round;stroke-miterlimit:1.41421;"><g><rect x="0.037" y="0.332" width="145.218" height="174.262" style="fill:url(#_Linear1);"/><g transform="matrix(1.84516,0,0,1.84516,-5494.72,-4615.47)"><path d="M2993.73,2557.78c-2.878,-2.823 -4.318,-6.393 -4.318,-10.71c0,-4.318 1.447,-7.881 4.339,-10.69c2.892,-2.809 6.427,-4.214 10.606,-4.214c3.238,0 6.117,0.858 8.635,2.574c2.519,1.716 4.276,4.096 5.272,7.141l-8.468,0c-1.107,-2.131 -2.879,-3.197 -5.314,-3.197c-2.436,0 -4.352,0.761 -5.75,2.283c-1.397,1.522 -2.096,3.557 -2.096,6.103c0,2.546 0.699,4.58 2.096,6.102c1.398,1.522 3.314,2.283 5.75,2.283c2.435,0 4.207,-1.065 5.314,-3.196l8.468,0c-0.996,3.044 -2.753,5.424 -5.272,7.14c-2.518,1.716 -5.397,2.574 -8.635,2.574c-4.179,0 -7.721,-1.398 -10.627,-4.193Z" style="fill:#fff;fill-rule:nonzero;"/><path d="M3038.56,2538.55l7.099,0l0,23.165l-7.099,0l0,-3.404c-1.466,2.435 -3.805,3.653 -7.015,3.653c-2.657,0 -4.809,-0.886 -6.456,-2.657c-1.646,-1.771 -2.47,-4.179 -2.47,-7.223l0,-13.534l7.058,0l0,12.579c0,1.495 0.394,2.65 1.183,3.466c0.788,0.817 1.875,1.225 3.259,1.225c1.383,0 2.47,-0.408 3.258,-1.225c0.789,-0.816 1.183,-1.971 1.183,-3.466l0,-12.579Z" style="fill:#fff;fill-rule:nonzero;"/><path d="M2988.9,2587.19l0,-1.04c0.256,-0.224 0.659,-0.571 1.208,-1.04c0.549,-0.469 0.957,-0.824 1.224,-1.064c0.267,-0.24 0.619,-0.565 1.056,-0.976c0.437,-0.411 0.771,-0.755 1,-1.032c0.229,-0.277 0.467,-0.597 0.712,-0.96c0.459,-0.683 0.688,-1.357 0.688,-2.024c0,-0.667 -0.173,-1.203 -0.52,-1.608c-0.347,-0.405 -0.891,-0.608 -1.632,-0.608c-0.741,0 -1.309,0.227 -1.704,0.68c-0.395,0.453 -0.608,1.053 -0.64,1.8l-1.392,0c0.043,-1.195 0.403,-2.115 1.08,-2.76c0.677,-0.645 1.557,-0.968 2.64,-0.968c1.083,0 1.952,0.307 2.608,0.92c0.656,0.613 0.984,1.448 0.984,2.504c0,1.269 -0.619,2.576 -1.856,3.92c-0.448,0.48 -0.795,0.832 -1.04,1.056c-0.683,0.661 -1.413,1.317 -2.192,1.968l5.44,0l0,1.232l-7.664,0Z" style="fill:#fff;fill-rule:nonzero;"/><path d="M2999.97,2579.19c0,0.757 0.216,1.371 0.648,1.84c0.432,0.469 1.045,0.704 1.84,0.704c0.795,0 1.395,-0.224 1.8,-0.672c0.405,-0.448 0.608,-1.067 0.608,-1.856c0,-0.789 -0.216,-1.416 -0.648,-1.88c-0.432,-0.464 -1.027,-0.696 -1.784,-0.696c-0.757,0 -1.357,0.235 -1.8,0.704c-0.443,0.469 -0.664,1.088 -0.664,1.856Zm2.64,6.912c0.853,0 1.477,-0.328 1.872,-0.984c0.395,-0.656 0.592,-1.805 0.592,-3.448c-0.277,0.427 -0.664,0.752 -1.16,0.976c-0.496,0.224 -1.032,0.336 -1.608,0.336c-1.056,0 -1.939,-0.333 -2.648,-1c-0.709,-0.667 -1.064,-1.581 -1.064,-2.744c0,-1.163 0.336,-2.093 1.008,-2.792c0.672,-0.699 1.605,-1.048 2.8,-1.048c1.397,0 2.4,0.477 3.008,1.432c0.608,0.955 0.912,2.453 0.912,4.496c0,2.043 -0.28,3.555 -0.84,4.536c-0.56,0.981 -1.544,1.472 -2.952,1.472c-1.077,0 -1.92,-0.283 -2.528,-0.848c-0.608,-0.565 -0.971,-1.275 -1.088,-2.128l1.328,0c0.245,1.163 1.035,1.744 2.368,1.744Z" style="fill:#fff;fill-rule:nonzero;"/></g><path d="M47.005,24.348c-0.051,0.709 -0.211,1.36 -0.479,1.955c-0.269,0.594 -0.639,1.103 -1.112,1.528c-0.472,0.425 -1.046,0.757 -1.72,0.996c-0.674,0.24 -1.442,0.36 -2.304,0.36c-0.895,0 -1.698,-0.155 -2.41,-0.465c-0.712,-0.31 -1.316,-0.755 -1.811,-1.337c-0.495,-0.581 -0.875,-1.285 -1.14,-2.113c-0.265,-0.827 -0.398,-1.755 -0.398,-2.783l0,-0.92c0,-1.028 0.137,-1.958 0.412,-2.788c0.275,-0.831 0.663,-1.537 1.164,-2.118c0.502,-0.581 1.11,-1.029 1.826,-1.342c0.715,-0.313 1.514,-0.469 2.395,-0.469c0.869,0 1.637,0.123 2.305,0.369c0.667,0.246 1.234,0.588 1.7,1.025c0.467,0.438 0.831,0.958 1.093,1.562c0.262,0.604 0.428,1.26 0.498,1.969l-2.875,0c-0.032,-0.415 -0.103,-0.782 -0.215,-1.102c-0.112,-0.319 -0.273,-0.587 -0.484,-0.805c-0.211,-0.217 -0.482,-0.381 -0.815,-0.493c-0.332,-0.112 -0.734,-0.168 -1.207,-0.168c-0.971,0 -1.694,0.353 -2.17,1.059c-0.476,0.706 -0.714,1.8 -0.714,3.282l0,0.939c0,0.722 0.053,1.354 0.158,1.897c0.105,0.543 0.272,0.997 0.498,1.361c0.227,0.364 0.521,0.637 0.882,0.819c0.361,0.182 0.797,0.273 1.308,0.273c0.453,0 0.845,-0.051 1.174,-0.153c0.329,-0.102 0.603,-0.257 0.824,-0.465c0.22,-0.208 0.391,-0.468 0.512,-0.781c0.122,-0.313 0.198,-0.677 0.23,-1.092l2.875,0Z" style="fill:#fff;fill-rule:nonzero;"/><path d="M60.353,22.336c0,1.066 -0.144,2.023 -0.432,2.869c-0.287,0.847 -0.691,1.564 -1.212,2.152c-0.52,0.587 -1.145,1.039 -1.873,1.355c-0.728,0.317 -1.53,0.475 -2.405,0.475c-0.875,0 -1.677,-0.158 -2.405,-0.475c-0.728,-0.316 -1.356,-0.768 -1.883,-1.355c-0.527,-0.588 -0.937,-1.305 -1.231,-2.152c-0.294,-0.846 -0.441,-1.803 -0.441,-2.869l0,-0.614c0,-1.06 0.145,-2.015 0.436,-2.865c0.291,-0.849 0.698,-1.571 1.222,-2.165c0.523,-0.594 1.149,-1.05 1.878,-1.366c0.728,-0.316 1.53,-0.474 2.405,-0.474c0.875,0 1.677,0.158 2.405,0.474c0.728,0.316 1.354,0.772 1.878,1.366c0.524,0.594 0.931,1.316 1.222,2.165c0.29,0.85 0.436,1.805 0.436,2.865l0,0.614Zm-2.913,-0.633c0,-1.463 -0.262,-2.574 -0.786,-3.334c-0.524,-0.761 -1.271,-1.141 -2.242,-1.141c-0.971,0 -1.719,0.38 -2.242,1.141c-0.524,0.76 -0.786,1.871 -0.786,3.334l0,0.633c0,0.728 0.069,1.371 0.206,1.93c0.137,0.559 0.335,1.029 0.594,1.409c0.259,0.38 0.577,0.667 0.953,0.862c0.377,0.195 0.808,0.293 1.294,0.293c0.971,0 1.715,-0.384 2.233,-1.15c0.517,-0.767 0.776,-1.882 0.776,-3.344l0,-0.633Z" style="fill:#fff;fill-rule:nonzero;"/><path d="M65.316,24.079l0,4.916l-2.874,0l0,-13.951l5.442,0c0.824,0 1.56,0.115 2.209,0.345c0.648,0.23 1.198,0.551 1.648,0.963c0.45,0.412 0.794,0.9 1.03,1.466c0.236,0.565 0.355,1.18 0.355,1.844c0,0.677 -0.119,1.287 -0.355,1.83c-0.236,0.543 -0.58,1.006 -1.03,1.39c-0.45,0.383 -1,0.678 -1.648,0.886c-0.649,0.208 -1.385,0.311 -2.209,0.311l-2.568,0Zm0,-2.328l2.568,0c0.409,0 0.762,-0.051 1.059,-0.153c0.297,-0.102 0.54,-0.245 0.728,-0.427c0.189,-0.182 0.328,-0.401 0.417,-0.656c0.089,-0.256 0.134,-0.533 0.134,-0.834c0,-0.3 -0.045,-0.589 -0.134,-0.867c-0.089,-0.278 -0.228,-0.524 -0.417,-0.738c-0.188,-0.214 -0.431,-0.385 -0.728,-0.512c-0.297,-0.128 -0.65,-0.192 -1.059,-0.192l-2.568,0l0,4.379Z" style="fill:#fff;fill-rule:nonzero;"/><path d="M77.974,24.079l0,4.916l-2.875,0l0,-13.951l5.443,0c0.824,0 1.56,0.115 2.209,0.345c0.648,0.23 1.197,0.551 1.648,0.963c0.45,0.412 0.794,0.9 1.03,1.466c0.236,0.565 0.354,1.18 0.354,1.844c0,0.677 -0.118,1.287 -0.354,1.83c-0.236,0.543 -0.58,1.006 -1.03,1.39c-0.451,0.383 -1,0.678 -1.648,0.886c-0.649,0.208 -1.385,0.311 -2.209,0.311l-2.568,0Zm0,-2.328l2.568,0c0.409,0 0.762,-0.051 1.059,-0.153c0.297,-0.102 0.54,-0.245 0.728,-0.427c0.189,-0.182 0.328,-0.401 0.417,-0.656c0.089,-0.256 0.134,-0.533 0.134,-0.834c0,-0.3 -0.045,-0.589 -0.134,-0.867c-0.089,-0.278 -0.228,-0.524 -0.417,-0.738c-0.188,-0.214 -0.431,-0.385 -0.728,-0.512c-0.297,-0.128 -0.65,-0.192 -1.059,-0.192l-2.568,0l0,4.379Z" style="fill:#fff;fill-rule:nonzero;"/><path d="M96.151,22.949l-5.519,0l0,3.737l6.477,0l0,2.309l-9.352,0l0,-13.951l9.333,0l0,2.328l-6.458,0l0,3.325l5.519,0l0,2.252Z" style="fill:#fff;fill-rule:nonzero;"/><path d="M103.961,23.888l-2.291,0l0,5.107l-2.874,0l0,-13.951l5.184,0c0.805,0 1.527,0.091 2.165,0.273c0.639,0.182 1.179,0.45 1.62,0.805c0.44,0.354 0.779,0.793 1.015,1.317c0.237,0.524 0.355,1.131 0.355,1.821c0,0.511 -0.058,0.969 -0.173,1.375c-0.115,0.405 -0.281,0.766 -0.498,1.083c-0.217,0.316 -0.479,0.592 -0.786,0.828c-0.306,0.237 -0.651,0.441 -1.034,0.614l3.018,5.701l0,0.134l-3.085,0l-2.616,-5.107Zm-2.291,-2.329l2.319,0c0.377,0 0.708,-0.049 0.992,-0.148c0.284,-0.099 0.521,-0.24 0.709,-0.422c0.189,-0.182 0.331,-0.399 0.427,-0.651c0.095,-0.253 0.143,-0.535 0.143,-0.848c0,-0.658 -0.187,-1.176 -0.56,-1.553c-0.374,-0.377 -0.947,-0.565 -1.72,-0.565l-2.31,0l0,4.187Z" style="fill:#fff;fill-rule:nonzero;"/></g><defs><linearGradient id="_Linear1" x1="0" y1="0" x2="1" y2="0" gradientUnits="userSpaceOnUse" gradientTransform="matrix(1.06704e-14,-174.262,174.262,1.06704e-14,72.6437,174.594)"><stop offset="0" style="stop-color:#e50131;stop-opacity:1"/><stop offset="1" style="stop-color:#b6093a;stop-opacity:1"/></linearGradient></defs></svg>