<?xml version="1.0" encoding="UTF-8" standalone="no"?><!DOCTYPE svg PUBLIC "-//W3C//DTD SVG 1.1//EN" "http://www.w3.org/Graphics/SVG/1.1/DTD/svg11.dtd"><svg width="100%" height="100%" viewBox="0 0 188 29" version="1.1" xmlns="http://www.w3.org/2000/svg" xmlns:xlink="http://www.w3.org/1999/xlink" xml:space="preserve" xmlns:serif="http://www.serif.com/" style="fill-rule:evenodd;clip-rule:evenodd;stroke-linejoin:round;stroke-miterlimit:1.41421;"><g><g><path d="M6.675,26.124c0,0.351 0.316,0.667 0.667,0.667l4.214,0c0.351,0 0.667,-0.316 0.667,-0.667l0,-18.753l5.022,0c0.387,0 0.668,-0.316 0.668,-0.667l0,-3.828c0,-0.351 -0.281,-0.667 -0.668,-0.667l-15.592,0c-0.386,0 -0.667,0.316 -0.667,0.667l0,3.828c0,0.351 0.281,0.667 0.667,0.667l5.022,0l0,18.753Z" style="fill:#fff;fill-rule:nonzero;"/><path d="M21.424,26.124c0,0.351 0.281,0.667 0.668,0.667l4.179,0c0.351,0 0.667,-0.316 0.667,-0.667l0,-8.955l2.423,0l4.67,9.306c0.071,0.141 0.281,0.316 0.562,0.316l4.671,0c0.597,0 0.843,-0.562 0.597,-1.018l-4.811,-8.92c3.055,-1.229 5.197,-3.828 5.197,-7.059c0,-4.179 -3.441,-7.585 -7.655,-7.585l-10.5,0c-0.387,0 -0.668,0.316 -0.668,0.667l0,23.248Zm5.514,-13.415l0,-5.478l5.197,0c1.44,0 2.669,1.194 2.669,2.669c0,1.475 -1.229,2.809 -2.669,2.809l-5.197,0Z" style="fill:#fff;fill-rule:nonzero;"/><path d="M44.602,17.38c0,5.338 4.46,9.762 9.973,9.762c5.549,0 10.044,-4.424 10.044,-9.762l0,-14.504c0,-0.351 -0.316,-0.667 -0.667,-0.667l-4.32,0c-0.386,0 -0.667,0.316 -0.667,0.667l0,14.223c0,2.458 -1.861,4.425 -4.39,4.425c-2.493,0 -4.319,-1.967 -4.319,-4.425l0,-14.223c0,-0.351 -0.281,-0.667 -0.667,-0.667l-4.32,0c-0.351,0 -0.667,0.316 -0.667,0.667l0,14.504Z" style="fill:#fff;fill-rule:nonzero;"/><path d="M70.273,26.124c0,0.351 0.281,0.667 0.667,0.667l8.709,0c4.179,0 7.656,-2.844 7.656,-6.778c0,-3.23 -2.845,-4.951 -4.706,-5.724c1.651,-0.878 4.074,-2.844 4.074,-5.548c0,-3.688 -3.407,-6.532 -7.551,-6.532l-8.182,0c-0.386,0 -0.667,0.316 -0.667,0.667l0,23.248Zm5.478,-13.942l0,-4.916l2.739,0c1.335,0 2.459,0.983 2.459,2.388c0,1.404 -1.124,2.528 -2.459,2.528l-2.739,0Zm0,9.587l0,-5.021l2.845,0c1.369,0 2.879,1.053 2.879,2.458c0,1.44 -1.159,2.563 -2.528,2.563l-3.196,0Z" style="fill:#fff;fill-rule:nonzero;"/><path d="M122.493,26.124c0,0.351 0.316,0.667 0.667,0.667l4.214,0c0.351,0 0.667,-0.316 0.667,-0.667l0,-18.753l5.022,0c0.386,0 0.667,-0.316 0.667,-0.667l0,-3.828c0,-0.351 -0.281,-0.667 -0.667,-0.667l-15.592,0c-0.386,0 -0.667,0.316 -0.667,0.667l0,3.828c0,0.351 0.281,0.667 0.667,0.667l5.022,0l0,18.753Z" style="fill:#fff;fill-rule:nonzero;"/><path d="M137.242,26.124c0,0.351 0.316,0.667 0.667,0.667l4.214,0c0.352,0 0.668,-0.316 0.668,-0.667l0,-23.248c0,-0.351 -0.316,-0.667 -0.668,-0.667l-4.214,0c-0.351,0 -0.667,0.316 -0.667,0.667l0,23.248Z" style="fill:#fff;fill-rule:nonzero;"/><path d="M147.04,14.535c0,7.024 5.654,12.607 12.677,12.607c3.126,0 6.146,-1.088 8.534,-3.406c0.246,-0.246 0.281,-0.702 0.035,-0.948l-2.739,-2.915c-0.211,-0.246 -0.667,-0.246 -0.913,-0.035c-1.265,1.089 -3.056,1.686 -4.706,1.686c-3.968,0 -6.918,-3.231 -6.918,-7.129c0,-3.934 2.915,-7.235 6.883,-7.235c1.721,0 3.441,0.633 4.741,1.791c0.246,0.246 0.632,0.246 0.878,0l2.739,-2.844c0.281,-0.281 0.281,-0.702 -0.035,-0.983c-2.388,-2.178 -4.987,-3.266 -8.499,-3.266c-7.023,0 -12.677,5.654 -12.677,12.677Z" style="fill:#fff;fill-rule:nonzero;"/><path d="M171.236,24.438c0.807,0.808 3.336,2.704 7.901,2.704c5.163,0 8.288,-3.652 8.288,-7.269c0,-4.776 -4.355,-6.918 -7.094,-8.007c-2.774,-1.124 -3.828,-2.107 -3.828,-3.406c0,-0.948 0.949,-1.791 2.213,-1.791c2.142,0 4.706,1.931 5.022,2.107c0.316,0.246 0.948,-0.07 1.194,-0.457l1.791,-2.704c0.14,-0.246 0.21,-0.878 -0.211,-1.124c-1.054,-0.772 -3.863,-2.633 -7.515,-2.633c-5.408,0 -8.112,3.511 -8.112,6.988c0,4.214 3.792,6.567 6.812,7.761c2.388,0.948 3.618,2.072 3.618,3.547c0,1.229 -1.019,2.107 -2.424,2.107c-2.317,0 -4.846,-1.861 -4.986,-1.931c-0.246,-0.176 -0.913,-0.246 -1.194,0.21l-1.651,2.915c-0.281,0.492 -0.175,0.632 0.176,0.983Z" style="fill:#fff;fill-rule:nonzero;"/></g><path d="M114.028,6.343l0.278,-0.038c0.806,1.161 1.436,2.435 1.87,3.78l-1.844,1.843c0.253,1.163 0.333,2.358 0.237,3.545l2.073,1.58c-0.251,1.391 -0.706,2.738 -1.35,3.996l-2.607,-0.001c-0.644,1.001 -1.432,1.903 -2.339,2.674l0.348,2.584c-1.161,0.806 -2.434,1.436 -3.779,1.87l-1.843,-1.844c-1.164,0.253 -2.358,0.333 -3.545,0.237l-1.581,2.074c-1.391,-0.251 -2.737,-0.706 -3.995,-1.351l0.001,-2.607c-1.002,-0.643 -1.903,-1.432 -2.675,-2.339l-2.583,0.349c-0.806,-1.161 -1.436,-2.435 -1.871,-3.78l1.845,-1.843c-0.253,-1.163 -0.333,-2.358 -0.238,-3.545l-2.073,-1.58c0.251,-1.391 0.706,-2.738 1.35,-3.996l2.607,0.001c0.644,-1.001 1.432,-1.903 2.339,-2.674l-0.348,-2.584c1.161,-0.806 2.435,-1.436 3.78,-1.87l1.842,1.844c1.164,-0.253 2.359,-0.333 3.546,-0.237l1.58,-2.074c1.391,0.251 2.737,0.706 3.996,1.351l-0.002,2.351c-0.796,0.474 -1.561,0.999 -2.289,1.573c-0.183,0.145 -0.364,0.293 -0.543,0.444c-2.411,-1.061 -5.257,-1.088 -7.799,0.171c-4.556,2.254 -6.424,7.782 -4.17,12.337c2.254,4.555 7.783,6.423 12.338,4.169c4.362,-2.158 6.26,-7.32 4.433,-11.754c0.256,-0.301 0.504,-0.61 0.744,-0.925c0.648,-0.855 1.232,-1.759 1.744,-2.702c0.184,-0.338 0.358,-0.682 0.523,-1.029Z" style="fill:#fff;"/><path d="M95.486,18.064c1.423,-0.581 4.042,-0.804 4.042,-0.804c0,0 -0.231,2.721 -0.837,4.123c-0.099,-0.054 -0.196,-0.111 -0.292,-0.17c-0.353,-0.215 -0.689,-0.457 -1.004,-0.725c-0.121,-0.103 -0.239,-0.21 -0.354,-0.32c-0.168,-0.163 -0.33,-0.332 -0.483,-0.509c-0.312,-0.359 -0.591,-0.748 -0.833,-1.158c-0.084,-0.143 -0.164,-0.289 -0.239,-0.437Z" style="fill:#fff;"/><path d="M114.028,6.343l0.278,-0.038c0.806,1.161 1.436,2.435 1.87,3.78l-1.844,1.843c0.253,1.163 0.333,2.358 0.237,3.545l2.073,1.58c-0.251,1.391 -0.706,2.738 -1.35,3.996l-2.607,-0.001c-0.644,1.001 -1.432,1.903 -2.339,2.674l0.348,2.584c-1.161,0.806 -2.434,1.436 -3.779,1.87l-1.843,-1.844c-1.164,0.253 -2.358,0.333 -3.545,0.237l-1.581,2.074c-1.391,-0.251 -2.737,-0.706 -3.995,-1.351l0.001,-2.607c-1.002,-0.643 -1.903,-1.432 -2.675,-2.339l-2.583,0.349c-0.806,-1.161 -1.436,-2.435 -1.871,-3.78l1.845,-1.843c-0.253,-1.163 -0.333,-2.358 -0.238,-3.545l-2.073,-1.58c0.251,-1.391 0.706,-2.738 1.35,-3.996l2.607,0.001c0.644,-1.001 1.432,-1.903 2.339,-2.674l-0.348,-2.584c1.161,-0.806 2.435,-1.436 3.78,-1.87l1.842,1.844c1.164,-0.253 2.359,-0.333 3.546,-0.237l1.58,-2.074c1.391,0.251 2.737,0.706 3.996,1.351l-0.002,2.351c-0.796,0.474 -1.561,0.999 -2.289,1.573c-0.183,0.145 -0.364,0.293 -0.543,0.444c-2.411,-1.061 -5.257,-1.088 -7.799,0.171c-4.556,2.254 -6.424,7.782 -4.17,12.337c2.254,4.555 7.783,6.423 12.338,4.169c4.362,-2.158 6.26,-7.32 4.433,-11.754c0.256,-0.301 0.504,-0.61 0.744,-0.925c0.648,-0.855 1.232,-1.759 1.744,-2.702c0.184,-0.338 0.358,-0.682 0.523,-1.029Z" style="fill:#fff;"/><g><g><path d="M105.117,8.67c2.431,-2.636 5.531,-4.584 8.987,-5.625c0,0 0,0 0,0c0,0 0,0 0,0c-1.041,3.455 -2.988,6.554 -5.624,8.983l-0.776,2.796l-2.215,2.797l-0.194,-3.059l-2.188,-0.52l-0.04,-0.16l-2.16,1.973l-0.598,0.012l0.357,-0.295l2.216,-2.43l-0.317,-1.266l0.017,-0.022l-0.256,-0.016l-2.469,-0.157l-0.329,-0.021l0.21,-0.166l2.587,-2.049l2.792,-0.775Z" style="fill:#fff;"/></g></g></g></svg>